<?xml version="1.0" standalone="no"?>
<!DOCTYPE svg PUBLIC "-//W3C//DTD SVG 20010904//EN"
 "http://www.w3.org/TR/2001/REC-SVG-20010904/DTD/svg10.dtd">
<svg version="1.0" xmlns="http://www.w3.org/2000/svg"
 width="700.000000pt" height="700.000000pt" viewBox="0 0 700.000000 700.000000"
 preserveAspectRatio="xMidYMid meet">
<metadata>
Created by potrace 1.14, written by Peter Selinger 2001-2017
</metadata>
<g transform="translate(0.000000,700.000000) scale(0.100000,-0.100000)"
fill="#000000" stroke="none">
<path d="M3277 6964 c-1 -1 -56 -5 -122 -9 -66 -4 -127 -8 -135 -10 -8 -1 -40
-6 -70 -10 -75 -9 -203 -33 -275 -51 -33 -9 -78 -20 -100 -25 -134 -32 -419
-144 -573 -226 -164 -86 -381 -224 -469 -298 -7 -5 -19 -16 -28 -23 -9 -8 -44
-37 -78 -65 -274 -226 -552 -559 -742 -890 -49 -84 -56 -92 -86 -95 -49 -5
-58 -17 -58 -75 1 -29 1 -66 0 -83 l-1 -32 -97 0 c-165 -1 -161 0 -168 -22 -3
-11 -6 -49 -6 -85 l0 -65 -78 0 c-62 0 -81 -4 -92 -17 -13 -15 -15 -142 -14
-881 1 -964 -6 -882 77 -882 52 0 50 3 63 -110 11 -89 15 -119 37 -230 25
-130 22 -116 52 -230 206 -780 627 -1425 1236 -1896 70 -54 227 -164 235 -164
3 0 29 -15 58 -34 163 -105 469 -238 687 -301 154 -44 378 -90 490 -100 176
-16 416 -21 525 -10 336 32 582 88 845 192 296 117 548 264 810 472 101 80
363 336 446 436 107 128 314 421 314 444 0 5 3 11 8 13 18 8 174 314 235 463
100 243 191 552 224 760 2 17 11 71 19 120 7 50 14 93 14 98 0 4 54 7 120 7
106 0 122 2 140 20 11 11 17 26 14 35 -5 13 6 15 73 15 64 0 83 4 94 18 21 24
21 1721 0 1746 -10 12 -32 16 -92 16 l-78 0 0 64 c1 36 -2 74 -6 85 -7 23 -3
22 -172 23 -105 0 -95 -10 -94 99 0 94 4 92 -217 92 l-191 0 -58 96 c-32 53
-60 100 -62 106 -15 36 -203 293 -290 395 -87 104 -337 348 -441 431 -380 304
-795 505 -1250 605 -36 8 -80 17 -99 20 -18 3 -42 7 -51 9 -10 2 -40 6 -67 10
-26 4 -59 8 -73 10 -49 8 -378 23 -383 19z m368 -249 c219 -32 379 -69 550
-127 648 -221 1193 -673 1580 -1313 55 -92 170 -319 210 -415 l26 -65 1 -761
c0 -418 4 -767 9 -775 6 -10 36 -15 116 -16 97 -2 108 -4 107 -20 -3 -59 -16
-188 -19 -193 -1 -3 -6 -27 -9 -55 -62 -470 -261 -990 -539 -1404 -188 -280
-379 -484 -692 -739 -49 -40 -239 -163 -333 -216 -260 -147 -614 -272 -882
-311 -182 -27 -248 -32 -425 -32 -306 -1 -560 39 -842 133 -143 47 -168 58
-350 145 -178 86 -424 246 -567 368 -519 446 -868 1008 -1049 1691 -25 93 -61
266 -72 345 -3 22 -8 52 -11 68 l-6 27 120 0 c90 0 122 3 131 14 6 8 12 50 13
95 l2 81 41 1 c22 0 77 0 121 0 60 -1 86 2 97 13 13 13 15 143 15 993 0 569
-4 985 -10 996 -6 11 -21 17 -44 17 l-35 0 17 33 c40 77 172 263 274 387 224
272 514 519 815 693 81 47 259 133 350 169 126 51 382 125 495 143 19 3 60 10
90 15 30 5 87 12 125 16 39 3 72 8 74 10 6 6 459 -4 506 -11z"/>
<path d="M1617 4584 c-1 -1 -20 -5 -42 -8 -94 -15 -200 -91 -240 -171 -19 -38
-20 -66 -22 -523 l-3 -483 25 -47 c43 -83 99 -131 191 -164 58 -20 75 -21 714
-22 360 -1 686 2 724 7 119 13 218 77 269 172 20 36 22 58 25 233 l4 192 31 1
c108 2 309 0 312 -3 3 -2 6 -89 8 -194 3 -186 3 -190 31 -236 46 -78 118 -131
216 -158 51 -15 1313 -21 1410 -8 126 18 220 79 266 175 l29 58 0 470 0 470
-28 57 c-15 31 -44 70 -63 87 -46 41 -125 80 -177 88 -23 4 -346 7 -717 7
-715 0 -725 0 -810 -47 -52 -28 -109 -86 -133 -137 -22 -45 -23 -56 -27 -376
0 -20 -5 -20 -175 -20 l-175 0 1 168 c0 147 -2 173 -20 213 -27 61 -53 93
-109 133 -94 67 -83 66 -835 66 -373 1 -679 0 -680 0z m1374 -250 l34 -20 0
-439 0 -438 -39 -20 c-37 -20 -57 -20 -695 -20 -687 0 -719 2 -741 43 -6 12
-10 182 -10 444 l0 426 25 16 c14 9 39 19 56 23 16 3 324 6 683 6 635 -1 653
-1 687 -21z m2279 12 c14 -5 34 -17 45 -27 19 -17 20 -30 20 -442 -1 -333 -3
-428 -14 -440 -31 -39 -66 -40 -741 -40 -606 0 -658 1 -693 18 -20 9 -38 25
-38 34 -7 67 -4 849 2 862 8 16 47 35 83 41 44 7 1313 1 1336 -6z"/>
<path d="M4415 2296 c-17 -7 -112 -95 -212 -196 l-182 -182 -715 -1 -716 -2
-32 -33 c-29 -28 -33 -39 -32 -83 1 -64 32 -99 96 -108 24 -3 366 -6 760 -5
629 1 719 3 740 16 42 28 430 422 439 446 23 61 -4 122 -67 148 -40 17 -41 17
-79 0z"/>
</g>
</svg>
