<?xml version="1.0" encoding="utf-8"?>
<!DOCTYPE svg PUBLIC "-//W3C//DTD SVG 1.1//EN" "http://www.w3.org/Graphics/SVG/1.1/DTD/svg11.dtd">
<!-- exported from Silhouette Studio® Business Edition V4.4.895ssbe -->
<svg version="1.1" xmlns="http://www.w3.org/2000/svg" xmlns:xlink="http://www.w3.org/1999/xlink" width="152.4mm" height="152.4mm" viewBox="0 0 152.4 152.4">
<defs>
<path id="path_5cdf8d71346d2c73805ce0b1dbea5ad5" d="M 120.5081 67.75233 L 132.6516 67.75233" fill-rule="evenodd" fill="none" fill-opacity="1" stroke="#000000" stroke-opacity="1" stroke-width="5.027083" stroke-linecap="round" stroke-linejoin="round"/>
<path id="path_9a6a6e9768d4aac3dc3a9cff956a95ca" d="M 142.1975 76.2 C 142.1975 116.4037 112.6164 149.0613 76.2 149.0613 C 39.78361 149.0613 10.20245 116.4037 10.20245 76.2 C 10.20245 35.99629 39.78361 3.338684 76.2 3.338684 C 112.6164 3.338684 142.1975 35.99629 142.1975 76.2 Z" fill-rule="evenodd" fill="#FDD677" fill-opacity="1" stroke="#000000" stroke-opacity="1" stroke-width="5.027083" stroke-linecap="round" stroke-linejoin="round"/>
<path id="path_5f368300b5f966efedc8c5eafefc7c86" d="M 66.82837 80.95184 C 69.66885 80.95184 71.97617 79.23613 71.97617 77.12398 L 71.97617 58.90865 C 71.97617 56.7965 69.66885 55.08079 66.82837 55.08079 L 39.63737 55.08079 C 36.79689 55.08079 34.48957 56.7965 34.48957 58.90865 L 34.48956 77.12398 C 34.48956 79.23613 36.79689 80.95184 39.63737 80.95184 L 66.82837 80.95184 Z" fill-rule="evenodd" fill="#CDE6F3" fill-opacity="1" stroke="#000000" stroke-opacity="1" stroke-width="5.027083" stroke-linecap="round" stroke-linejoin="round"/>
<path id="path_526782b5f68b996ddce56293e4c232df" d="M 116.9865 80.95183 C 119.827 80.95183 122.1343 79.23613 122.1343 77.12398 L 122.1343 58.90862 C 122.1343 56.79648 119.827 55.08077 116.9865 55.08077 L 89.79549 55.08077 C 86.95502 55.08077 84.6477 56.79648 84.6477 58.90862 L 84.6477 77.12398 C 84.6477 79.23613 86.95502 80.95183 89.79549 80.95183 L 116.9865 80.95183 Z" fill-rule="evenodd" fill="#CDE6F3" fill-opacity="1" stroke="#000000" stroke-opacity="1" stroke-width="5.027083" stroke-linecap="round" stroke-linejoin="round"/>
<path id="path_d06eeec2f7a881b6137e5dc42b521419" d="M 72.50414 67.75232 L 84.64769 67.75232" fill-rule="evenodd" fill="none" fill-opacity="1" stroke="#000000" stroke-opacity="1" stroke-width="5.027083" stroke-linecap="round" stroke-linejoin="round"/>
<path id="path_adff7492b6f4e39a22a834ede507469f" d="M 60.88858 113.1587 L 92.03944 113.1587 L 100.4871 104.711" fill-rule="evenodd" fill="none" fill-opacity="1" stroke="#000000" stroke-opacity="1" stroke-width="5.027083" stroke-linecap="round" stroke-linejoin="round"/>
<path id="path_4ed768f12de6b52465b0b14d5b05fcf7" d="M 20.71326 68.01619 L 32.85682 68.01619" fill-rule="evenodd" fill="none" fill-opacity="1" stroke="#000000" stroke-opacity="1" stroke-width="5.027083" stroke-linecap="round" stroke-linejoin="round"/>
<path id="path_8590e0104551216e47033efd6d326461" d="M 2.455647 46.63311 L 2.455647 83.59174 L 10.37535 83.59174 L 10.37535 46.63311 L 2.455647 46.63311 Z" fill-rule="evenodd" fill="#000000" fill-opacity="1" stroke="#000000" stroke-opacity="1" stroke-width="1.763889" stroke-linecap="round" stroke-linejoin="round"/>
<path id="path_9100dfabca866ce8329cc3d72985bb3b" d="M 6.415499 42.84036 L 6.415495 85.07878 L 14.3352 85.07878 L 14.33521 42.84036 L 6.415499 42.84036 Z" fill-rule="evenodd" fill="#000000" fill-opacity="1" stroke="#000000" stroke-opacity="1" stroke-width="1.763889" stroke-linecap="round" stroke-linejoin="round"/>
<path id="path_a08984c6841beffda2b97703f41d9837" d="M 12.39011 38.7135 L 12.39011 80.95184 L 20.3098 80.95184 L 20.30981 38.7135 L 12.39011 38.7135 Z" fill-rule="evenodd" fill="#000000" fill-opacity="1" stroke="#000000" stroke-opacity="1" stroke-width="1.763889" stroke-linecap="round" stroke-linejoin="round"/>
<path id="path_e3a643f75db86a6a26da7ff87d1f3827" d="M 149.9443 46.63312 L 149.9443 83.59174 L 142.0246 83.59174 L 142.0246 46.63312 L 149.9443 46.63312 Z" fill-rule="evenodd" fill="#000000" fill-opacity="1" stroke="#000000" stroke-opacity="1" stroke-width="1.763889" stroke-linecap="round" stroke-linejoin="round"/>
<path id="path_45b10a9f06f01c1c6085ad697a651861" d="M 145.9845 42.84037 L 145.9845 85.0788 L 138.0648 85.0788 L 138.0648 42.84037 L 145.9845 42.84037 Z" fill-rule="evenodd" fill="#000000" fill-opacity="1" stroke="#000000" stroke-opacity="1" stroke-width="1.763889" stroke-linecap="round" stroke-linejoin="round"/>
<path id="path_4bf735dfe75aec986efec416ad52fba5" d="M 140.0099 38.7135 L 140.0099 80.95184 L 132.0902 80.95184 L 132.0901 38.7135 L 140.0099 38.7135 Z" fill-rule="evenodd" fill="#000000" fill-opacity="1" stroke="#000000" stroke-opacity="1" stroke-width="1.763889" stroke-linecap="round" stroke-linejoin="round"/>
</defs>
<g>
<use xlink:href="#path_5cdf8d71346d2c73805ce0b1dbea5ad5"/>
</g>
<g>
<g>
<use xlink:href="#path_9a6a6e9768d4aac3dc3a9cff956a95ca"/>
</g>
<g>
<use xlink:href="#path_5f368300b5f966efedc8c5eafefc7c86"/>
</g>
<g>
<use xlink:href="#path_526782b5f68b996ddce56293e4c232df"/>
</g>
<g>
<use xlink:href="#path_d06eeec2f7a881b6137e5dc42b521419"/>
</g>
<g>
<use xlink:href="#path_adff7492b6f4e39a22a834ede507469f"/>
</g>
<g>
<use xlink:href="#path_4ed768f12de6b52465b0b14d5b05fcf7"/>
</g>
</g>
<g>
<g>
<use xlink:href="#path_8590e0104551216e47033efd6d326461"/>
</g>
<g>
<use xlink:href="#path_9100dfabca866ce8329cc3d72985bb3b"/>
</g>
<g>
<use xlink:href="#path_a08984c6841beffda2b97703f41d9837"/>
</g>
</g>
<g>
<g>
<use xlink:href="#path_e3a643f75db86a6a26da7ff87d1f3827"/>
</g>
<g>
<use xlink:href="#path_45b10a9f06f01c1c6085ad697a651861"/>
</g>
<g>
<use xlink:href="#path_4bf735dfe75aec986efec416ad52fba5"/>
</g>
</g>
</svg>