<?xml version="1.0" standalone="no"?>
<!DOCTYPE svg PUBLIC "-//W3C//DTD SVG 20010904//EN"
 "http://www.w3.org/TR/2001/REC-SVG-20010904/DTD/svg10.dtd">
<svg version="1.0" xmlns="http://www.w3.org/2000/svg"
 width="700.000000pt" height="700.000000pt" viewBox="0 0 700.000000 700.000000"
 preserveAspectRatio="xMidYMid meet">
<metadata>
Created by potrace 1.14, written by Peter Selinger 2001-2017
</metadata>
<g transform="translate(0.000000,700.000000) scale(0.100000,-0.100000)"
fill="#000000" stroke="none">
<path d="M3488 6965 c-2 -1 -64 -5 -138 -9 -147 -6 -179 -10 -315 -32 -886
-148 -1664 -694 -2160 -1519 -43 -71 -80 -132 -83 -135 -2 -3 -55 -6 -118 -6
-73 -1 -119 -6 -129 -14 -10 -8 -15 -37 -17 -93 l-3 -82 -123 -1 c-79 -1 -127
-5 -135 -13 -7 -7 -12 -43 -12 -86 0 -85 8 -78 -101 -75 -90 2 -83 83 -83
-887 0 -528 4 -864 10 -875 8 -15 23 -18 92 -18 82 0 82 0 84 -26 1 -34 18
-44 75 -44 l47 0 6 -47 c44 -320 129 -638 246 -925 59 -143 198 -417 257 -507
23 -34 42 -65 42 -67 0 -9 142 -207 207 -288 216 -271 509 -538 771 -702 457
-286 883 -429 1392 -469 83 -7 342 -7 405 0 22 2 69 7 105 10 36 4 72 8 80 10
8 1 35 6 60 10 25 3 59 9 75 11 17 3 59 12 95 20 36 9 72 17 80 19 58 13 88
22 195 57 1026 340 1825 1220 2121 2336 20 73 37 143 40 155 2 12 13 67 23
122 11 55 23 118 25 140 17 123 12 115 65 115 33 0 53 6 64 18 15 17 17 21 17
42 0 6 33 10 80 10 65 0 81 3 89 18 5 10 9 363 10 874 0 756 -2 859 -15 873
-11 11 -37 15 -92 15 l-77 0 0 71 c2 102 2 102 -148 102 l-127 0 0 88 c0 87 0
89 -26 95 -14 4 -73 7 -130 7 l-104 1 -92 152 c-50 84 -101 164 -112 178 -12
14 -39 51 -61 82 -173 247 -449 520 -750 742 -213 156 -555 326 -831 411 -55
17 -109 34 -120 36 -44 11 -201 46 -224 50 -57 10 -88 14 -135 21 -27 3 -58 8
-67 9 -10 2 -75 7 -145 10 -71 4 -140 8 -155 10 -15 1 -29 1 -30 0z"/>
</g>
</svg>
